<svg width="48" height="48" viewBox="0 0 48 48" fill="none" xmlns="http://www.w3.org/2000/svg">
<path d="M1.5 14C1.5 12.6193 2.61929 11.5 4 11.5H44C45.3807 11.5 46.5 12.6193 46.5 14V26C46.5 27.3807 45.3807 28.5 44 28.5H4C2.61929 28.5 1.5 27.3807 1.5 26V14Z" stroke="#152C5B" stroke-width="3"/>
<path d="M41 33L40.737 33.4208C39.0201 36.1679 38.7402 39.5766 39.9862 42.5669L41 45" stroke="#152C5B" stroke-width="3" stroke-linecap="round"/>
<path d="M8 33L8.26299 33.4208C9.97995 36.1679 10.2598 39.5766 9.01378 42.5669L8 45" stroke="#152C5B" stroke-width="3" stroke-linecap="round"/>
<path d="M35 33L34.737 33.4208C33.0201 36.1679 32.7402 39.5766 33.9862 42.5669L35 45" stroke="#152C5B" stroke-width="3" stroke-linecap="round"/>
<path d="M14 33L14.263 33.4208C15.9799 36.1679 16.2598 39.5766 15.0138 42.5669L14 45" stroke="#152C5B" stroke-width="3" stroke-linecap="round"/>
<path d="M19.5 17.5H28.5" stroke="#FF498B" stroke-width="3" stroke-linecap="round"/>
<path d="M46 23L9.53674e-07 23" stroke="#152C5B" stroke-width="3" stroke-linecap="round"/>
</svg>
