<svg width="48" height="48" viewBox="0 0 48 48" fill="none" xmlns="http://www.w3.org/2000/svg">
<path d="M29.5 40C29.5 41.3599 28.4006 42.9673 25.7722 44.3239C23.2205 45.6409 19.5911 46.5 15.5 46.5C11.4089 46.5 7.77948 45.6409 5.22781 44.3239C2.59941 42.9673 1.5 41.3599 1.5 40C1.5 38.6401 2.59941 37.0327 5.22781 35.6761C7.77948 34.3591 11.4089 33.5 15.5 33.5C19.5911 33.5 23.2205 34.3591 25.7722 35.6761C28.4006 37.0327 29.5 38.6401 29.5 40Z" stroke="#152C5B" stroke-width="3"/>
<path d="M27.5 12C27.5 15.0437 26.062 21.5895 23.6593 27.4132C22.4646 30.3091 21.0744 32.9175 19.5847 34.7747C18.0534 36.6837 16.6636 37.5 15.5 37.5C14.3364 37.5 12.9466 36.6837 11.4153 34.7747C9.92556 32.9175 8.53543 30.3091 7.34069 27.4132C4.93804 21.5895 3.5 15.0437 3.5 12C3.5 6.36222 8.70161 1.5 15.5 1.5C22.2984 1.5 27.5 6.36222 27.5 12Z" fill="white" stroke="#152C5B" stroke-width="3"/>
<circle cx="15.5" cy="14.5" r="4" stroke="#FF498B" stroke-width="3"/>
</svg>
