<svg width="48" height="48" viewBox="0 0 48 48" fill="none" xmlns="http://www.w3.org/2000/svg">
<mask id="path-1-inside-1_6_155" fill="white">
<path fill-rule="evenodd" clip-rule="evenodd" d="M17.919 5C17.0691 5 16.312 5.53712 16.0312 6.3393L14.4 11H8C3.58172 11 0 14.5817 0 19V33C0 37.4183 3.58172 41 8 41H40C44.4183 41 48 37.4183 48 33V19C48 14.5817 44.4183 11 40 11H33.2L31.0307 6.17927C30.7077 5.46157 29.9939 5 29.2068 5H17.919Z"/>
</mask>
<path d="M16.0312 6.3393L18.8628 7.33035V7.33035L16.0312 6.3393ZM14.4 11V14H16.5284L17.2316 11.9911L14.4 11ZM33.2 11L30.4642 12.2311L31.2602 14H33.2V11ZM31.0307 6.17927L28.2949 7.41036L28.2949 7.41036L31.0307 6.17927ZM18.8628 7.33035C18.7224 7.73144 18.3439 8 17.919 8V2C15.7942 2 13.9016 3.34281 13.1997 5.34825L18.8628 7.33035ZM17.2316 11.9911L18.8628 7.33035L13.1997 5.34825L11.5684 10.0089L17.2316 11.9911ZM8 14H14.4V8H8V14ZM3 19C3 16.2386 5.23858 14 8 14V8C1.92487 8 -3 12.9249 -3 19H3ZM3 33V19H-3V33H3ZM8 38C5.23858 38 3 35.7614 3 33H-3C-3 39.0751 1.92487 44 8 44V38ZM40 38H8V44H40V38ZM45 33C45 35.7614 42.7614 38 40 38V44C46.0751 44 51 39.0751 51 33H45ZM45 19V33H51V19H45ZM40 14C42.7614 14 45 16.2386 45 19H51C51 12.9249 46.0751 8 40 8V14ZM33.2 14H40V8H33.2V14ZM28.2949 7.41036L30.4642 12.2311L35.9358 9.76891L33.7664 4.94818L28.2949 7.41036ZM29.2068 8C28.8133 8 28.4564 7.76921 28.2949 7.41036L33.7664 4.94818C32.959 3.15392 31.1744 2 29.2068 2V8ZM17.919 8H29.2068V2H17.919V8Z" fill="#152C5B" mask="url(#path-1-inside-1_6_155)"/>
<circle cx="24" cy="25" r="6.5" stroke="#FF498B" stroke-width="3"/>
<path d="M41 18H35" stroke="#152C5B" stroke-width="3" stroke-linecap="round"/>
</svg>
