<svg width="48" height="48" viewBox="0 0 48 48" fill="none" xmlns="http://www.w3.org/2000/svg">
<path d="M17 17V23" stroke="#152C5B" stroke-width="3" stroke-linecap="round"/>
<path d="M31 18V23" stroke="#152C5B" stroke-width="3" stroke-linecap="round"/>
<path d="M6.72103 24.7138C7.17284 23.9607 7.9866 23.5 8.86476 23.5H38.6375C39.4809 23.5 40.2674 23.9252 40.7293 24.6309L42.6929 27.6308L43.8761 26.8564L42.6929 27.6308C43.7812 29.2935 42.5883 31.5 40.6011 31.5H7.06476C5.12153 31.5 3.92124 29.3801 4.92103 27.7138L6.72103 24.7138Z" stroke="#152C5B" stroke-width="3"/>
<mask id="path-4-inside-1_28_594" fill="white">
<path d="M11 48C8.79086 48 7 46.2091 7 44L7 31C7 30.4477 7.44772 30 8 30L14 30C14.5523 30 15 30.4477 15 31L15 44C15 46.2091 13.2091 48 11 48Z"/>
</mask>
<path d="M11 48C8.79086 48 7 46.2091 7 44L7 31C7 30.4477 7.44772 30 8 30L14 30C14.5523 30 15 30.4477 15 31L15 44C15 46.2091 13.2091 48 11 48Z" stroke="#152C5B" stroke-width="6" mask="url(#path-4-inside-1_28_594)"/>
<mask id="path-5-inside-2_28_594" fill="white">
<path d="M37 48C34.7909 48 33 46.2091 33 44L33 31C33 30.4477 33.4477 30 34 30L40 30C40.5523 30 41 30.4477 41 31L41 44C41 46.2091 39.2091 48 37 48Z"/>
</mask>
<path d="M37 48C34.7909 48 33 46.2091 33 44L33 31C33 30.4477 33.4477 30 34 30L40 30C40.5523 30 41 30.4477 41 31L41 44C41 46.2091 39.2091 48 37 48Z" stroke="#152C5B" stroke-width="6" mask="url(#path-5-inside-2_28_594)"/>
<mask id="path-6-inside-3_28_594" fill="white">
<path d="M17 17C14.2386 17 12 14.7614 12 12V8C12 7.44772 12.4477 7 13 7L21 7C21.5523 7 22 7.44771 22 8V12C22 14.7614 19.7614 17 17 17Z"/>
</mask>
<path d="M17 17C14.2386 17 12 14.7614 12 12V8C12 7.44772 12.4477 7 13 7L21 7C21.5523 7 22 7.44771 22 8V12C22 14.7614 19.7614 17 17 17Z" stroke="#FF498B" stroke-width="6" mask="url(#path-6-inside-3_28_594)"/>
<mask id="path-7-inside-4_28_594" fill="white">
<path d="M31 18C28.2386 18 26 15.7614 26 13L26 8C26 7.44771 26.4477 7 27 7L35 7C35.5523 7 36 7.44772 36 8V13C36 15.7614 33.7614 18 31 18Z"/>
</mask>
<path d="M31 18C28.2386 18 26 15.7614 26 13L26 8C26 7.44771 26.4477 7 27 7L35 7C35.5523 7 36 7.44772 36 8V13C36 15.7614 33.7614 18 31 18Z" stroke="#FF498B" stroke-width="6" mask="url(#path-7-inside-4_28_594)"/>
</svg>
