<svg width="32" height="33" viewBox="0 0 32 33" fill="none" xmlns="http://www.w3.org/2000/svg">
<rect x="1.5" y="5.5" width="29" height="26" rx="2.5" stroke="white" stroke-width="3"/>
<rect x="6" y="18" width="3" height="4" rx="1" fill="white"/>
<rect x="6" y="23" width="3" height="4" rx="1" fill="white"/>
<rect x="12" y="23" width="3" height="4" rx="1" fill="white"/>
<rect x="18" y="23" width="3" height="4" rx="1" fill="white"/>
<rect x="24" y="23" width="3" height="4" rx="1" fill="white"/>
<rect x="12" y="18" width="3" height="4" rx="1" fill="white"/>
<rect x="18" y="18" width="3" height="4" rx="1" fill="white"/>
<rect x="24" y="18" width="3" height="4" rx="1" fill="white"/>
<path d="M4 5.5L28 5.5C29.3807 5.5 30.5 6.61929 30.5 8V14.5L1.5 14.5L1.5 8C1.5 6.61929 2.61929 5.5 4 5.5Z" stroke="white" stroke-width="3"/>
<circle cx="24" cy="8" r="2" fill="white"/>
<path d="M24 2V8" stroke="white" stroke-width="3" stroke-linecap="round"/>
<circle cx="8" cy="8" r="2" fill="white"/>
<path d="M8 2V8" stroke="white" stroke-width="3" stroke-linecap="round"/>
</svg>
